<svg width="262" height="56" viewBox="0 0 262 56" fill="none" xmlns="http://www.w3.org/2000/svg">
<g clip-path="url(#clip0_1793_652)">
<path d="M50.8806 19.6558L45.6046 29.5094H45.5978L31.5083 55.8127L32.9558 46.3308L32.9626 46.3173L38.8811 7.59214L50.8806 19.6558Z" fill="url(#paint0_linear_1793_652)"/>
<mask id="mask0_1793_652" style="mask-type:luminance" maskUnits="userSpaceOnUse" x="-200" y="-337" width="732" height="730">
<path d="M-199.489 -336.949H531.029V392.949H-199.489V-336.949Z" fill="white"/>
</mask>
<g mask="url(#mask0_1793_652)">
<mask id="mask1_1793_652" style="mask-type:luminance" maskUnits="userSpaceOnUse" x="31" y="7" width="20" height="49">
<mask id="mask2_1793_652" style="mask-type:luminance" maskUnits="userSpaceOnUse" x="31" y="7" width="20" height="49">
<path d="M31.5103 7.59214H50.8825V55.8127H31.5103V7.59214Z" fill="white"/>
</mask>
<g mask="url(#mask2_1793_652)">
<path d="M31.5103 7.59317H50.8825V55.8145H31.5103V7.59317Z" fill="black"/>
<mask id="mask3_1793_652" style="mask-type:luminance" maskUnits="userSpaceOnUse" x="31" y="7" width="20" height="49">
<path d="M31.5122 7.59189H50.8845V55.8125H31.5122V7.59189Z" fill="white"/>
</mask>
<g mask="url(#mask3_1793_652)">
<path d="M50.8862 19.6555L45.6102 29.5085H45.6035L31.5139 55.8125L32.9614 46.3306L32.9682 46.3164L38.8868 7.59189L50.8862 19.6555Z" fill="url(#paint1_linear_1793_652)"/>
</g>
</g>
</mask>
<g mask="url(#mask1_1793_652)">
<mask id="mask4_1793_652" style="mask-type:luminance" maskUnits="userSpaceOnUse" x="31" y="7" width="20" height="49">
<path d="M31.5103 7.59214H50.8825V55.8127H31.5103V7.59214Z" fill="white"/>
</mask>
<g mask="url(#mask4_1793_652)">
<path d="M50.8842 19.6538L45.6083 29.5074H45.6015L31.512 55.8108L32.9595 46.3289L32.9663 46.3153L38.8848 7.59018L50.8842 19.6538Z" fill="url(#paint2_linear_1793_652)"/>
</g>
</g>
</g>
<path d="M12.1343 19.6558L17.4102 29.5094H17.417L31.5065 55.8127L30.059 46.3308L30.0523 46.3173L24.1337 7.59214L12.1343 19.6558Z" fill="url(#paint3_linear_1793_652)"/>
<mask id="mask5_1793_652" style="mask-type:luminance" maskUnits="userSpaceOnUse" x="-200" y="-337" width="732" height="730">
<path d="M-199.489 -336.949H531.029V392.949H-199.489V-336.949Z" fill="white"/>
</mask>
<g mask="url(#mask5_1793_652)">
<mask id="mask6_1793_652" style="mask-type:luminance" maskUnits="userSpaceOnUse" x="12" y="7" width="20" height="49">
<mask id="mask7_1793_652" style="mask-type:luminance" maskUnits="userSpaceOnUse" x="12" y="7" width="20" height="49">
<path d="M12.1345 7.59214H31.5068V55.8127H12.1345V7.59214Z" fill="white"/>
</mask>
<g mask="url(#mask7_1793_652)">
<path d="M12.1345 7.59317H31.5068V55.8145H12.1345V7.59317Z" fill="black"/>
<mask id="mask8_1793_652" style="mask-type:luminance" maskUnits="userSpaceOnUse" x="12" y="7" width="20" height="49">
<path d="M12.1328 7.59189H31.5051V55.8125H12.1328V7.59189Z" fill="white"/>
</mask>
<g mask="url(#mask8_1793_652)">
<path d="M12.1311 19.6555L17.4071 29.5085H17.4138L31.5034 55.8125L30.0559 46.3306L30.0491 46.3164L24.1305 7.59189L12.1311 19.6555Z" fill="url(#paint4_linear_1793_652)"/>
</g>
</g>
</mask>
<g mask="url(#mask6_1793_652)">
<mask id="mask9_1793_652" style="mask-type:luminance" maskUnits="userSpaceOnUse" x="12" y="7" width="20" height="49">
<path d="M12.1345 7.59214H31.5068V55.8127H12.1345V7.59214Z" fill="white"/>
</mask>
<g mask="url(#mask9_1793_652)">
<path d="M12.1328 19.6538L17.4088 29.5074H17.4155L31.5051 55.8108L30.0576 46.3289L30.0508 46.3153L24.1322 7.59018L12.1328 19.6538Z" fill="url(#paint5_linear_1793_652)"/>
</g>
</g>
</g>
<path d="M38.8768 7.59214L32.9582 46.3173L32.9514 46.3308L31.5039 55.8127L30.0571 46.3308L24.1311 7.59214L31.5039 0.185017L38.8768 7.59214Z" fill="url(#paint6_linear_1793_652)"/>
<path d="M50.8806 19.6558V36.4569L31.5083 55.8127L45.5978 29.5094H45.6046L50.8806 19.6558Z" fill="url(#paint7_linear_1793_652)"/>
<path d="M31.5058 55.8127L12.1343 36.4569V19.6558L17.4163 29.5094L31.5058 55.8127Z" fill="url(#paint8_linear_1793_652)"/>
<mask id="mask10_1793_652" style="mask-type:luminance" maskUnits="userSpaceOnUse" x="-200" y="-337" width="732" height="730">
<path d="M-199.489 -336.949H531.029V392.949H-199.489V-336.949Z" fill="white"/>
</mask>
<g mask="url(#mask10_1793_652)">
<path d="M31.5072 55.8127L12.135 45.0062L4.59304 40.8025C1.60332 35.9838 -0.114746 30.3001 -0.114746 24.2176L12.135 36.4569L31.5072 55.8127Z" fill="#84B843"/>
<path d="M31.5099 55.8127L17.4204 29.5094C23.3593 33.4697 27.8776 39.3833 30.0624 46.3308L31.5099 55.8127Z" fill="#AFD036"/>
<path d="M45.5961 29.5094L31.5066 55.8127L32.9541 46.3308L32.9609 46.3173C33.9349 43.222 35.3756 40.3294 37.1952 37.7275C37.2696 37.6261 37.3372 37.5247 37.4116 37.4234C38.6494 35.6932 40.0699 34.0915 41.6256 32.6452C41.7947 32.483 41.9706 32.3276 42.1465 32.1721C42.3494 31.9964 42.5455 31.8207 42.7485 31.6518C42.9446 31.4828 43.1475 31.3206 43.3505 31.1584C43.7901 30.807 44.2433 30.4623 44.6965 30.1379C44.94 29.9554 45.197 29.7797 45.4473 29.6107C45.4947 29.577 45.5488 29.5499 45.5961 29.5094Z" fill="#AFD036"/>
<path d="M63.1286 24.2176C63.1286 30.3001 61.4105 35.9838 58.4208 40.8025L31.5066 55.8127L63.1286 24.2176Z" fill="#84B843"/>
<path d="M58.4208 40.8025C52.854 49.8114 42.8837 55.8127 31.5066 55.8127L58.4208 40.8025Z" fill="#A8CA37"/>
<path d="M31.5101 55.8127C20.133 55.8127 10.1628 49.8114 4.59595 40.8025L31.5101 55.8127Z" fill="#94C435"/>
<path d="M63.1286 24.2176L31.5066 55.8127L45.5961 29.5094H45.6029C45.6841 29.4553 45.7585 29.408 45.8396 29.3539C46.0155 29.2323 46.1914 29.1174 46.3808 29.0093C46.6175 28.8606 46.861 28.7119 47.1045 28.57C47.321 28.4416 47.5442 28.3132 47.7674 28.1847C47.9974 28.0563 48.2341 27.9347 48.4708 27.813C48.7752 27.6508 49.0796 27.4954 49.3908 27.3467C49.7425 27.1778 50.101 27.0156 50.4595 26.8601C51.1021 26.5695 51.7649 26.3127 52.4278 26.0761C53.7333 25.6031 55.0793 25.2178 56.4592 24.9272C56.5945 24.8934 56.7298 24.8664 56.8718 24.8394C57.1085 24.7853 57.3521 24.7448 57.5888 24.7042C57.8323 24.6569 58.069 24.6164 58.3125 24.5826C58.5763 24.542 58.8401 24.5015 59.1039 24.4744C59.2798 24.4474 59.4557 24.4271 59.6383 24.4136C59.7533 24.3933 59.875 24.3798 59.9968 24.3731C60.5447 24.319 61.0926 24.2784 61.6472 24.2514C61.8637 24.2446 62.0801 24.2311 62.2966 24.2311C62.5739 24.2244 62.8512 24.2176 63.1286 24.2176Z" fill="#84B843"/>
<mask id="mask11_1793_652" style="mask-type:luminance" maskUnits="userSpaceOnUse" x="31" y="24" width="33" height="32">
<mask id="mask12_1793_652" style="mask-type:luminance" maskUnits="userSpaceOnUse" x="31" y="24" width="33" height="32">
<path d="M31.5103 24.2157H63.1322V55.8108H31.5103V24.2157Z" fill="white"/>
</mask>
<g mask="url(#mask12_1793_652)">
<path d="M31.5103 24.2157H63.1322V55.8108H31.5103V24.2157Z" fill="black"/>
<mask id="mask13_1793_652" style="mask-type:luminance" maskUnits="userSpaceOnUse" x="31" y="24" width="33" height="32">
<path d="M31.512 24.214H63.1339V55.8091H31.512V24.214Z" fill="white"/>
</mask>
<g mask="url(#mask13_1793_652)">
<path d="M63.1359 24.212L31.5139 55.8071L45.6035 29.5031H45.6102C45.6914 29.4497 45.7665 29.4024 45.847 29.3483C46.0235 29.2267 46.1987 29.1118 46.3888 29.0036C46.6248 28.8543 46.869 28.7063 47.1118 28.5643C47.3283 28.4359 47.5515 28.3076 47.7747 28.1791C48.0047 28.0507 48.2414 27.9291 48.4782 27.8074C48.7832 27.6452 49.0869 27.4898 49.3981 27.3411C49.7498 27.1721 50.109 27.0099 50.4668 26.8545C51.1101 26.5639 51.773 26.3071 52.4352 26.0706C53.7413 25.5975 55.0867 25.2122 56.4665 24.9216C56.6018 24.8878 56.7371 24.8608 56.8791 24.8338C57.1159 24.7797 57.3594 24.7391 57.5961 24.6986C57.8396 24.6513 58.0764 24.6107 58.3199 24.577C58.5837 24.5364 58.8475 24.4958 59.1113 24.4688C59.2871 24.4418 59.4637 24.4215 59.6456 24.408C59.7613 24.3877 59.8824 24.3742 60.0041 24.3674C60.552 24.3134 61.1006 24.2728 61.6546 24.2458C61.871 24.239 62.0881 24.2255 62.3039 24.2255C62.5812 24.2187 62.8586 24.212 63.1359 24.212Z" fill="url(#paint9_linear_1793_652)"/>
</g>
</g>
</mask>
<g mask="url(#mask11_1793_652)">
<mask id="mask14_1793_652" style="mask-type:luminance" maskUnits="userSpaceOnUse" x="31" y="24" width="33" height="32">
<path d="M31.5103 24.2157H63.1322V55.8108H31.5103V24.2157Z" fill="white"/>
</mask>
<g mask="url(#mask14_1793_652)">
<path d="M63.1322 24.2157L31.5103 55.8108L45.5998 29.5074H45.6065C45.6877 29.4534 45.7621 29.406 45.8433 29.352C46.0192 29.2303 46.195 29.1154 46.3844 29.0073C46.6212 28.8586 46.8647 28.7099 47.1082 28.568C47.3246 28.4396 47.5478 28.3112 47.771 28.1828C48.001 28.0544 48.2378 27.9327 48.4745 27.8111C48.7789 27.6489 49.0833 27.4934 49.3944 27.3448C49.7462 27.1758 50.1046 27.0136 50.4631 26.8582C51.1057 26.5676 51.7686 26.3107 52.4315 26.0742C53.7369 25.6011 55.083 25.2159 56.4629 24.9253C56.5981 24.8915 56.7334 24.8645 56.8755 24.8374C57.1122 24.7834 57.3557 24.7428 57.5925 24.7023C57.836 24.6549 58.0727 24.6144 58.3162 24.5806C58.58 24.5401 58.8438 24.4995 59.1076 24.4725C59.2835 24.4454 59.4593 24.4252 59.642 24.4116C59.757 24.3914 59.8787 24.3779 60.0005 24.3711C60.5483 24.317 61.0962 24.2765 61.6509 24.2494C61.8673 24.2427 62.0838 24.2292 62.3002 24.2292C62.5776 24.2224 62.8549 24.2157 63.1322 24.2157Z" fill="#B3D138"/>
</g>
</g>
<path d="M-0.114746 24.2176L31.5072 55.8127L17.4177 29.5094H17.4109C17.3298 29.4553 17.2554 29.408 17.1742 29.3539C16.9983 29.2323 16.8225 29.1174 16.6331 29.0093C16.3963 28.8606 16.1528 28.7119 15.9093 28.57C15.6929 28.4416 15.4696 28.3132 15.2464 28.1847C15.0164 28.0563 14.7797 27.9347 14.543 27.813C14.2386 27.6508 13.9342 27.4954 13.6231 27.3467C13.2713 27.1778 12.9128 27.0156 12.5543 26.8601C11.9117 26.5695 11.2489 26.3127 10.586 26.0761C9.28053 25.6031 7.93448 25.2178 6.55461 24.9272C6.41933 24.8934 6.28405 24.8664 6.14201 24.8394C5.90526 24.7853 5.66176 24.7448 5.42502 24.7042C5.18151 24.6569 4.94477 24.6164 4.70126 24.5826C4.43746 24.542 4.17367 24.5015 3.90987 24.4744C3.734 24.4474 3.55814 24.4271 3.37551 24.4136C3.26052 24.3933 3.13877 24.3798 3.01701 24.3731C2.46912 24.319 1.92124 24.2784 1.36658 24.2514C1.15013 24.2446 0.933683 24.2311 0.717233 24.2311C0.439907 24.2244 0.16258 24.2176 -0.114746 24.2176Z" fill="#84B843"/>
<mask id="mask15_1793_652" style="mask-type:luminance" maskUnits="userSpaceOnUse" x="-1" y="24" width="33" height="32">
<mask id="mask16_1793_652" style="mask-type:luminance" maskUnits="userSpaceOnUse" x="-1" y="24" width="33" height="32">
<path d="M-0.116699 24.2159H31.5053V55.811H-0.116699V24.2159Z" fill="white"/>
</mask>
<g mask="url(#mask16_1793_652)">
<path d="M-0.116455 24.2157H31.5055V55.8108H-0.116455V24.2157Z" fill="black"/>
<mask id="mask17_1793_652" style="mask-type:luminance" maskUnits="userSpaceOnUse" x="-1" y="24" width="33" height="32">
<path d="M-0.118408 24.214H31.5036V55.8091H-0.118408V24.214Z" fill="white"/>
</mask>
<g mask="url(#mask17_1793_652)">
<path d="M-0.120605 24.2142L31.5014 55.8093L17.4118 29.5053H17.4051C17.3239 29.4519 17.2495 29.4046 17.1683 29.3505C16.9925 29.2289 16.8166 29.114 16.6272 29.0058C16.3905 28.8565 16.147 28.7085 15.9034 28.5665C15.687 28.4381 15.4638 28.3098 15.2406 28.1813C15.0106 28.0529 14.7739 27.9313 14.5371 27.8096C14.2327 27.6474 13.9283 27.492 13.6172 27.3433C13.2655 27.1743 12.907 27.0121 12.5485 26.8567C11.9059 26.5661 11.243 26.3093 10.5801 26.0728C9.27467 25.5997 7.92863 25.2144 6.54877 24.9238C6.41348 24.89 6.27819 24.863 6.13615 24.836C5.89941 24.7819 5.6559 24.7413 5.41916 24.7008C5.17565 24.6535 4.93893 24.6129 4.69542 24.5792C4.43162 24.5386 4.16782 24.498 3.9047 24.471C3.72816 24.444 3.55228 24.4237 3.36965 24.4102C3.25466 24.3899 3.13291 24.3764 3.01116 24.3696C2.46327 24.3156 1.91538 24.275 1.36072 24.248C1.14427 24.2412 0.927831 24.2277 0.711381 24.2277C0.434055 24.2209 0.156721 24.2142 -0.120605 24.2142Z" fill="url(#paint10_linear_1793_652)"/>
</g>
</g>
</mask>
<g mask="url(#mask15_1793_652)">
<mask id="mask18_1793_652" style="mask-type:luminance" maskUnits="userSpaceOnUse" x="-1" y="24" width="33" height="32">
<path d="M-0.116699 24.2159H31.5053V55.811H-0.116699V24.2159Z" fill="white"/>
</mask>
<g mask="url(#mask18_1793_652)">
<path d="M-0.116699 24.2159L31.5053 55.811L17.4157 29.5077H17.409C17.3278 29.4536 17.2534 29.4063 17.1722 29.3522C16.9964 29.2306 16.8205 29.1157 16.6311 29.0075C16.3944 28.8589 16.1509 28.7102 15.9074 28.5683C15.6909 28.4398 15.4677 28.3114 15.2445 28.183C15.0145 28.0546 14.7778 27.933 14.541 27.8113C14.2366 27.6491 13.9322 27.4937 13.6211 27.345C13.2694 27.176 12.9109 27.0138 12.5524 26.8584C11.9098 26.5678 11.2469 26.311 10.584 26.0744C9.27857 25.6014 7.93253 25.2161 6.55266 24.9255C6.41738 24.8917 6.2821 24.8647 6.14005 24.8377C5.90331 24.7836 5.6598 24.7431 5.42306 24.7025C5.17956 24.6552 4.94282 24.6146 4.69931 24.5809C4.43551 24.5403 4.17171 24.4998 3.90791 24.4727C3.73205 24.4457 3.55618 24.4254 3.37355 24.4119C3.25856 24.3916 3.13681 24.3781 3.01506 24.3713C2.46717 24.3173 1.91928 24.2767 1.36463 24.2497C1.14818 24.2429 0.93173 24.2294 0.71528 24.2294C0.437953 24.2227 0.160627 24.2159 -0.116699 24.2159Z" fill="#B3D138"/>
</g>
</g>
<mask id="mask19_1793_652" style="mask-type:luminance" maskUnits="userSpaceOnUse" x="-1" y="24" width="33" height="32">
<mask id="mask20_1793_652" style="mask-type:luminance" maskUnits="userSpaceOnUse" x="-1" y="24" width="33" height="32">
<path d="M-0.116699 24.2159H31.5053V55.811H-0.116699V24.2159Z" fill="white"/>
</mask>
<g mask="url(#mask20_1793_652)">
<path d="M-0.116455 24.2157H31.5055V55.8108H-0.116455V24.2157Z" fill="black"/>
<mask id="mask21_1793_652" style="mask-type:luminance" maskUnits="userSpaceOnUse" x="-1" y="24" width="33" height="32">
<path d="M-0.118408 24.214H31.5036V55.8091H-0.118408V24.214Z" fill="white"/>
</mask>
<g mask="url(#mask21_1793_652)">
<path d="M31.5014 55.8093L12.1298 45.0028L4.58719 40.7984C1.59748 35.9797 -0.120605 30.2967 -0.120605 24.2142L12.1298 36.4535L31.5014 55.8093Z" fill="url(#paint11_linear_1793_652)"/>
</g>
</g>
</mask>
<g mask="url(#mask19_1793_652)">
<mask id="mask22_1793_652" style="mask-type:luminance" maskUnits="userSpaceOnUse" x="-1" y="24" width="33" height="32">
<path d="M-0.116699 24.2159H31.5053V55.811H-0.116699V24.2159Z" fill="white"/>
</mask>
<g mask="url(#mask22_1793_652)">
<path d="M31.5053 55.811L12.133 45.0045L4.59108 40.8008C1.60137 35.9821 -0.116699 30.2984 -0.116699 24.2159L12.133 36.4552L31.5053 55.811Z" fill="#94C435"/>
</g>
</g>
<path d="M82.2995 35.0126H84.8659C85.7284 35.0126 86.545 34.8963 87.3155 34.6634C88.0865 34.4297 88.7615 34.0801 89.3417 33.6142C89.921 33.1475 90.3804 32.565 90.7201 31.8658C91.0594 31.1662 91.229 30.3504 91.229 29.4179C91.229 28.9378 91.1513 28.3764 90.9959 27.7333C90.8401 27.0906 90.5468 26.4796 90.1155 25.9C89.6838 25.3207 89.087 24.8296 88.3233 24.4272C87.5597 24.0243 86.5698 23.8231 85.3537 23.8231H82.2995V35.0126ZM80.2632 21.9154H85.5022C86.5629 21.9154 87.4925 22.0357 88.2916 22.2759C89.0898 22.5166 89.7835 22.8377 90.3702 23.2402C90.9565 23.6426 91.4447 24.1056 91.8336 24.6284C92.2226 25.1512 92.5302 25.6882 92.7564 26.239C92.9822 26.7898 93.1449 27.341 93.2438 27.8918C93.343 28.4431 93.3927 28.9516 93.3927 29.4179C93.3927 30.3788 93.2157 31.3077 92.8621 32.2049C92.5086 33.102 91.9854 33.9004 91.2925 34.5992C90.5996 35.2988 89.7408 35.8606 88.7159 36.2841C87.6903 36.7081 86.5063 36.9199 85.1629 36.9199H80.2632V21.9154Z" fill="white"/>
<path d="M96.7635 33.7834C97.1309 34.3342 97.6017 34.7407 98.1741 35.0021C98.7469 35.2639 99.3369 35.3939 99.9451 35.3939C100.284 35.3939 100.631 35.3411 100.985 35.235C101.338 35.1293 101.66 34.9704 101.95 34.7582C102.239 34.5464 102.476 34.285 102.66 33.9744C102.844 33.6634 102.936 33.3033 102.936 32.8935C102.936 32.3143 102.752 31.8728 102.384 31.5687C102.016 31.2651 101.56 31.011 101.016 30.8057C100.472 30.6012 99.878 30.4033 99.2344 30.2126C98.5911 30.0216 97.9971 29.7569 97.4528 29.4179C96.9084 29.0789 96.4523 28.6232 96.0849 28.0504C95.7171 27.4785 95.5336 26.7049 95.5336 25.7301C95.5336 25.2923 95.6288 24.8264 95.8197 24.3313C96.0105 23.837 96.3111 23.3849 96.7212 22.9752C97.1309 22.5654 97.6578 22.2232 98.3014 21.9475C98.9447 21.6719 99.7189 21.5341 100.624 21.5341C101.444 21.5341 102.229 21.6475 102.978 21.8732C103.728 22.0992 104.385 22.5585 104.951 23.2508L103.297 24.7553C103.042 24.3597 102.681 24.0419 102.215 23.8016C101.748 23.5614 101.218 23.4415 100.624 23.4415C100.058 23.4415 99.5879 23.5154 99.2132 23.6638C98.8389 23.8122 98.5378 24.0028 98.312 24.2362C98.0854 24.4691 97.9263 24.7203 97.8348 24.9882C97.7424 25.2569 97.6969 25.5045 97.6969 25.7301C97.6969 26.3659 97.8804 26.8533 98.2481 27.1923C98.6159 27.5313 99.072 27.8069 99.6164 28.0187C100.161 28.2309 100.755 28.422 101.398 28.5915C102.042 28.761 102.636 28.9976 103.18 29.3012C103.724 29.6053 104.18 30.0147 104.548 30.5301C104.915 31.0464 105.099 31.7561 105.099 32.6602C105.099 33.3809 104.961 34.0305 104.686 34.6098C104.41 35.1895 104.039 35.6769 103.572 36.0724C103.106 36.4679 102.554 36.7716 101.918 36.9834C101.281 37.1956 100.603 37.3013 99.8817 37.3013C98.9199 37.3013 98.0077 37.1318 97.1452 36.7927C96.2826 36.4537 95.5971 35.9309 95.0881 35.2244L96.7635 33.7834Z" fill="white"/>
<path d="M111.247 23.8227H106.411V21.9154H118.12V23.8227H113.284V36.9199H111.247V23.8227Z" fill="white"/>
<path d="M134.95 29.3582C135.784 28.7322 136.2 27.8659 136.2 26.7598C136.2 25.6541 135.784 24.7858 134.95 24.1561C134.116 23.5265 132.936 23.2118 131.409 23.2118H128.008V30.298H131.409C132.936 30.298 134.116 29.9846 134.95 29.3582ZM135.915 23.2915C137.006 24.1647 137.551 25.3204 137.551 26.7598C137.551 28.1988 137.006 29.3533 135.915 30.2228C134.825 31.0923 133.31 31.5273 131.369 31.5273H128.008V36.844H126.627V21.9821H131.369C133.31 21.9821 134.825 22.4191 135.915 23.2915Z" fill="white"/>
<path d="M142.469 29.9879H145.81C147.317 29.9879 148.489 29.6866 149.326 29.0834C150.163 28.4805 150.581 27.6561 150.581 26.6098C150.581 25.5504 150.165 24.7195 149.331 24.1163C148.497 23.5134 147.324 23.2118 145.81 23.2118H142.469V29.9879ZM152.732 36.844H151.112L147.071 31.1171C146.744 31.1708 146.307 31.1976 145.76 31.1976H142.469V36.844H141.088V21.9825H145.76C147.701 21.9825 149.214 22.4008 150.302 23.237C151.388 24.0728 151.932 25.1907 151.932 26.5903C151.932 27.6293 151.632 28.5175 151.032 29.2533C150.431 29.9899 149.564 30.5212 148.431 30.8476L152.732 36.844Z" fill="white"/>
<path d="M168.232 31.9464C168.532 31.1537 168.682 30.311 168.682 29.4175C168.682 28.5248 168.532 27.6821 168.232 26.8895C167.932 26.0964 167.517 25.4118 166.986 24.8354C166.456 24.2594 165.808 23.8045 165.041 23.4711C164.274 23.1378 163.447 22.9715 162.56 22.9715C161.673 22.9715 160.846 23.1378 160.079 23.4711C159.313 23.8045 158.664 24.2594 158.134 24.8354C157.604 25.4118 157.188 26.0964 156.888 26.8895C156.589 27.6821 156.439 28.5248 156.439 29.4175C156.439 30.311 156.589 31.1537 156.888 31.9464C157.188 32.7395 157.604 33.424 158.134 34.0005C158.664 34.5769 159.313 35.0314 160.079 35.3643C160.846 35.698 161.673 35.8643 162.56 35.8643C163.447 35.8643 164.274 35.698 165.041 35.3643C165.808 35.0314 166.456 34.5769 166.986 34.0005C167.517 33.424 167.932 32.7395 168.232 31.9464ZM155.058 29.4175C155.045 28.3517 155.228 27.339 155.608 26.3797C155.988 25.4199 156.51 24.5955 157.173 23.9061C157.837 23.2163 158.639 22.6715 159.579 22.2715C160.52 21.8719 161.513 21.6821 162.56 21.702C163.6 21.6821 164.589 21.8719 165.526 22.2715C166.463 22.6715 167.265 23.2163 167.932 23.9061C168.598 24.5955 169.123 25.4216 169.507 26.3842C169.891 27.3476 170.075 28.3586 170.062 29.4175C170.082 30.8305 169.764 32.1313 169.107 33.3208C168.45 34.5102 167.542 35.4476 166.381 36.1342C165.221 36.82 163.947 37.1537 162.56 37.1334C161.513 37.1468 160.52 36.9533 159.579 36.5537C158.639 36.1541 157.837 35.6078 157.173 34.9147C156.51 34.222 155.988 33.3972 155.608 32.4411C155.228 31.485 155.045 30.4773 155.058 29.4175Z" fill="white"/>
<path d="M185.253 29.4179C185.253 27.5525 184.678 26.0517 183.527 24.9155C182.377 23.7797 180.815 23.2114 178.841 23.2114H175.12V35.5944H178.841C180.821 35.5944 182.385 35.0334 183.532 33.9106C184.679 32.7879 185.253 31.2903 185.253 29.4179ZM185.678 25.5403C186.315 26.6663 186.634 27.959 186.634 29.4179C186.634 30.8773 186.315 32.1684 185.678 33.2907C185.041 34.4139 184.131 35.2867 182.947 35.9094C181.764 36.5326 180.395 36.844 178.841 36.844H173.739V21.9821H178.841C180.395 21.9821 181.764 22.2939 182.947 22.9167C184.131 23.5399 185.041 24.4143 185.678 25.5403Z" fill="white"/>
<path d="M190.212 30.4582V21.9826H191.583V30.4582C191.583 32.2306 191.973 33.5749 192.753 34.4908C193.534 35.407 194.68 35.8652 196.194 35.8652C197.714 35.8652 198.867 35.407 199.65 34.4908C200.434 33.5749 200.826 32.2306 200.826 30.4582V21.9826H202.196V30.4582C202.196 32.6103 201.676 34.2607 200.636 35.4107C199.595 36.5599 198.115 37.1343 196.194 37.1343C194.274 37.1343 192.797 36.5599 191.763 35.4107C190.73 34.2607 190.212 32.6103 190.212 30.4582Z" fill="white"/>
<path d="M205.772 29.4181C205.759 28.3522 205.942 27.3396 206.322 26.3799C206.702 25.4205 207.224 24.5961 207.888 23.9063C208.551 23.2169 209.354 22.6717 210.293 22.2721C211.234 21.8725 212.228 21.6827 213.274 21.7026C214.568 21.7026 215.747 21.979 216.811 22.5323C217.874 23.0851 218.743 23.8579 219.416 24.851L218.296 25.5502C217.716 24.7242 216.997 24.088 216.14 23.6417C215.283 23.1949 214.328 22.9721 213.274 22.9721C212.387 22.9721 211.561 23.1384 210.794 23.4717C210.027 23.8047 209.378 24.2599 208.848 24.836C208.318 25.4124 207.903 26.0969 207.603 26.8896C207.303 27.6823 207.153 28.5254 207.153 29.4181C207.153 30.3112 207.303 31.1543 207.603 31.947C207.903 32.7401 208.318 33.4242 208.848 34.0006C209.378 34.5771 210.027 35.032 210.794 35.3649C211.561 35.6982 212.387 35.8645 213.274 35.8645C214.328 35.8645 215.283 35.6417 216.14 35.195C216.997 34.7486 217.716 34.1124 218.296 33.2864L219.416 33.9856C218.716 34.9787 217.837 35.7515 216.781 36.3043C215.724 36.8576 214.555 37.1336 213.274 37.1336C212.228 37.1474 211.234 36.9539 210.293 36.5543C209.354 36.1543 208.551 35.6084 207.888 34.9149C207.224 34.2222 206.702 33.3978 206.322 32.4413C205.942 31.4856 205.759 30.4775 205.772 29.4181Z" fill="white"/>
<path d="M221.735 23.2118V21.9825H233.979V23.2118H228.537V36.844H227.157V23.2118H221.735Z" fill="white"/>
</g>
</g>
<defs>
<linearGradient id="paint0_linear_1793_652" x1="36.2858" y1="34.7697" x2="45.6908" y2="11.5926" gradientUnits="userSpaceOnUse">
<stop stop-color="#1B6597"/>
<stop offset="1" stop-color="#2AAEE4"/>
</linearGradient>
<linearGradient id="paint1_linear_1793_652" x1="45.8851" y1="11.0847" x2="43.9332" y2="16.0575" gradientUnits="userSpaceOnUse">
<stop stop-color="white"/>
<stop offset="1" stop-color="#241F20"/>
</linearGradient>
<linearGradient id="paint2_linear_1793_652" x1="41.1984" y1="55.8108" x2="41.1984" y2="7.59014" gradientUnits="userSpaceOnUse">
<stop stop-color="#0F6D97"/>
<stop offset="1" stop-color="#2AAEE4"/>
</linearGradient>
<linearGradient id="paint3_linear_1793_652" x1="26.7291" y1="34.7697" x2="17.3241" y2="11.5926" gradientUnits="userSpaceOnUse">
<stop stop-color="#1B6597"/>
<stop offset="1" stop-color="#2AAEE4"/>
</linearGradient>
<linearGradient id="paint4_linear_1793_652" x1="17.1323" y1="11.0847" x2="19.0842" y2="16.0575" gradientUnits="userSpaceOnUse">
<stop stop-color="white"/>
<stop offset="1" stop-color="#241F20"/>
</linearGradient>
<linearGradient id="paint5_linear_1793_652" x1="21.8188" y1="55.8108" x2="21.8188" y2="7.59014" gradientUnits="userSpaceOnUse">
<stop stop-color="#0F6D97"/>
<stop offset="1" stop-color="#2AAEE4"/>
</linearGradient>
<linearGradient id="paint6_linear_1793_652" x1="31.5041" y1="55.8128" x2="31.5041" y2="0.184993" gradientUnits="userSpaceOnUse">
<stop stop-color="#143969"/>
<stop offset="0.00421027" stop-color="#143969"/>
<stop offset="1" stop-color="#00A1DD"/>
</linearGradient>
<linearGradient id="paint7_linear_1793_652" x1="50.8809" y1="37.7343" x2="31.5085" y2="37.7343" gradientUnits="userSpaceOnUse">
<stop stop-color="#126599"/>
<stop offset="1" stop-color="#1D9DCE"/>
</linearGradient>
<linearGradient id="paint8_linear_1793_652" x1="12.1341" y1="37.7343" x2="31.5061" y2="37.7343" gradientUnits="userSpaceOnUse">
<stop stop-color="#126599"/>
<stop offset="1" stop-color="#1D9DCE"/>
</linearGradient>
<linearGradient id="paint9_linear_1793_652" x1="50.8313" y1="31.5982" x2="36.3829" y2="50.9862" gradientUnits="userSpaceOnUse">
<stop stop-color="white"/>
<stop offset="1" stop-color="#231F20"/>
</linearGradient>
<linearGradient id="paint10_linear_1793_652" x1="12.1844" y1="31.6004" x2="26.6328" y2="50.9884" gradientUnits="userSpaceOnUse">
<stop stop-color="white"/>
<stop offset="1" stop-color="#231F20"/>
</linearGradient>
<linearGradient id="paint11_linear_1793_652" x1="3.63485" y1="33.3639" x2="23.038" y2="45.251" gradientUnits="userSpaceOnUse">
<stop stop-color="white"/>
<stop offset="1" stop-color="#241F20"/>
</linearGradient>
<clipPath id="clip0_1793_652">
<rect width="262" height="56" fill="white"/>
</clipPath>
</defs>
</svg>
